# xmcd CD database file
#
# Track frame offsets:
#	182
#	16247
#	37977
#
# Disc length: 702 seconds
#
# Revision: 0
# Processed by: cddbd v1.4PL0 Copyright (c) Steve Scherf et al.
# Submitted via: CDex 1.50Beta7
#
DISCID=1602bc03
DTITLE=Emmylou, Linda, Dolly - a Trio from the Trio - One Angelic Sound
DYEAR=1999
DGENRE=Country
TTITLE0=After The Goldrush - 01
TTITLE1=Feels Like Home - 02
TTITLE2=Do I Ever Cross Your Mind - 03
EXTD=YEAR: 1999
EXTT0=
EXTT1=
EXTT2=
PLAYORDER=
